<svg 
 xmlns="http://www.w3.org/2000/svg"
 xmlns:xlink="http://www.w3.org/1999/xlink"
 width="29px" height="18px">
<path fill-rule="evenodd"  fill="rgb(14, 122, 255)"
 d="M23.116,10.787 L18.618,14.915 C17.902,15.618 17.902,16.757 18.618,17.460 C19.336,18.164 20.499,18.164 21.215,17.460 L28.195,10.898 C28.713,10.387 29.000,9.713 29.000,8.990 C29.000,8.268 28.713,7.590 28.195,7.083 L21.215,0.522 C20.499,-0.182 19.336,-0.182 18.618,0.522 C17.902,1.223 17.902,2.363 18.618,3.066 L23.112,7.189 L1.813,7.189 C0.812,7.189 -0.000,7.995 -0.000,8.988 C-0.000,9.982 0.812,10.787 1.813,10.787 L23.116,10.787 Z"/>
</svg>